<svg xmlns="http://www.w3.org/2000/svg" enable-background="new 0 0 130 130" viewBox="0 0 130 130" id="assign">
  <circle cx="65" cy="65" r="64" fill="#4A749B"></circle>
  <path fill="#386384" d="M88.90002,29.26926V95.0208c0,2.96732-2.40549,5.3728-5.3728,5.3728h-46.8716
			c-2.96731,0-5.3728-2.40548-5.3728-5.3728V29.26926c0-2.96731,2.40548-5.3728,5.3728-5.3728h46.8716
			C86.49454,23.89646,88.90002,26.30194,88.90002,29.26926z"></path>
  <path fill="#386384" d="M101.82938,88.30976c0,11.47017-9.28961,20.75978-20.75978,20.75978s-20.75977-9.28961-20.75977-20.75978
			c0-11.4539,9.28961-20.75977,20.75977-20.75977S101.82938,76.85586,101.82938,88.30976z"></path>
  <path fill="#386384" d="M100.79826,70.59625v2.14534c0,0.41705-0.33809,0.75514-0.75514,0.75514h-5.01418v5.01409
			c0,0.41705-0.33809,0.75514-0.75514,0.75514h-2.14526c-0.41705,0-0.75513-0.33809-0.75513-0.75514v-5.01409h-5.01418
			c-0.41705,0-0.75514-0.33809-0.75514-0.75514v-2.14534c0-0.41705,0.33809-0.75513,0.75514-0.75513h5.01418v-5.01409
			c0-0.41705,0.33808-0.75514,0.75513-0.75514h2.14526c0.41705,0,0.75514,0.33809,0.75514,0.75514v5.01409h5.01418
			C100.46017,69.84112,100.79826,70.17921,100.79826,70.59625z"></path>
  <path fill="#386384" d="M85.75401 72.88727h5.6194v.60986h-5.00929c-.37012 0-.69019-.26978-.73999-.62988C85.66417 72.88727 85.70396 72.88727 85.75401 72.88727zM94.42393 64.2171c0-.03979 0-.08984-.02002-.12988.36011.05005.62012.37012.62012.73999v5.01391h-.6001V64.2171zM100.79405 70.59723v2.13989c0 .42017-.33008.76001-.75.76001h-5.02002v5.01001c0 .42017-.33008.76001-.75.76001h-2.1499c-.37012 0-.68018-.27002-.72998-.62988.03979.02002.07983.02002.12988.02002h2.14014c.41992 0 .75977-.34009.75977-.75v-5.02002h5.01001c.42017 0 .76001-.33008.76001-.75v-2.15015c0-.04004 0-.08984-.02002-.12988C100.53404 69.90729 100.79405 70.22736 100.79405 70.59723zM20.47726 74.21826L20.47726 74.21826c.00001-2.1913 1.77641-3.9677 3.96771-3.9677v-.00008c-2.1913 0-3.9677-1.77641-3.9677-3.9677h-.00001c0 2.1913-1.7764 3.9677-3.9677 3.9677v.00008C18.70086 70.25056 20.47726 72.02696 20.47726 74.21826zM100.644 57.27768L100.644 57.27768c.00001-2.36769 1.9194-4.28708 4.28709-4.28708v-.00009c-2.36769 0-4.28708-1.91939-4.28708-4.28708H100.644c0 2.36769-1.91939 4.28708-4.28708 4.28708v.00009C98.72461 52.9906 100.644 54.90999 100.644 57.27768zM73.09747 14.91326L73.09747 14.91326c.00001-2.36769 1.9194-4.28708 4.28709-4.28708V10.6261c-2.36769 0-4.28708-1.91939-4.28708-4.28708h-.00001c0 2.36769-1.91939 4.28708-4.28708 4.28708v.00009C71.17808 10.62619 73.09747 12.54558 73.09747 14.91326zM112.58806 90.10667L112.58806 90.10667c.00001-1.4174 1.14903-2.56642 2.56643-2.56642v-.00005c-1.4174 0-2.56642-1.14902-2.56642-2.56642h-.00001c0 1.4174-1.14902 2.56642-2.56642 2.56642v.00005C111.43903 87.54025 112.58806 88.68927 112.58806 90.10667zM60.77027 121.46237L60.77027 121.46237c.00001-1.4174 1.14903-2.56642 2.56643-2.56642v-.00005c-1.4174 0-2.56642-1.14902-2.56642-2.56642h-.00001c0 1.4174-1.14902 2.56642-2.56642 2.56642v.00005C59.62124 118.89595 60.77027 120.04498 60.77027 121.46237zM28.49432 105.73372L28.49432 105.73372c0-1.4174 1.14903-2.56643 2.56643-2.56643v-.00005c-1.4174 0-2.56642-1.14902-2.56642-2.56642h0c0 1.4174-1.14903 2.56642-2.56642 2.56642v.00005C27.34529 103.16729 28.49432 104.31632 28.49432 105.73372zM17.36061 38.54745L17.36061 38.54745c.00001 1.51352 1.22695 2.74047 2.74047 2.74047v.00006c-1.51352 0-2.74047 1.22695-2.74047 2.74046h-.00001c0-1.51352-1.22695-2.74046-2.74047-2.74046v-.00006C16.13367 41.28791 17.36061 40.06097 17.36061 38.54745zM109.44905 29.52763L109.44905 29.52763c.00001 1.4174 1.14903 2.56643 2.56643 2.56643v.00005c-1.4174 0-2.56642 1.14902-2.56642 2.56642h-.00001c0-1.4174-1.14902-2.56642-2.56642-2.56642v-.00005C108.30003 32.09406 109.44905 30.94503 109.44905 29.52763zM47.27615 12.17082L47.27615 12.17082c0 1.4174 1.14903 2.56642 2.56643 2.56642v.00005c-1.4174 0-2.56643 1.14903-2.56643 2.56642h0c0-1.4174-1.14902-2.56642-2.56642-2.56642v-.00005C46.12713 14.73724 47.27615 13.58821 47.27615 12.17082z"></path>
  <path fill="#6894AF" d="M19.7249 73.43171L19.7249 73.43171c.00001-2.19131 1.77641-3.9677 3.96771-3.9677v-.00008c-2.1913 0-3.9677-1.7764-3.9677-3.9677H19.7249c0 2.19131-1.7764 3.9677-3.9677 3.9677V69.464C17.9485 69.464 19.7249 71.2404 19.7249 73.43171zM99.89164 56.49112L99.89164 56.49112c.00001-2.36769 1.9194-4.28708 4.28708-4.28708v-.00009c-2.36768 0-4.28707-1.91939-4.28707-4.28708h-.00001c0 2.36768-1.9194 4.28708-4.28708 4.28708v.00009C97.97224 52.20404 99.89164 54.12343 99.89164 56.49112zM72.34511 14.1267L72.34511 14.1267c.00001-2.36769 1.9194-4.28708 4.28708-4.28708V9.83954c-2.36768 0-4.28707-1.91939-4.28707-4.28708h-.00001c0 2.36769-1.9194 4.28708-4.28708 4.28708v.00009C70.42571 9.83963 72.34511 11.75902 72.34511 14.1267zM111.8357 89.32011L111.8357 89.32011c.00001-1.4174 1.14903-2.56643 2.56643-2.56643v-.00005c-1.4174 0-2.56642-1.14902-2.56642-2.56642h-.00001c0 1.4174-1.14902 2.56642-2.56642 2.56642v.00005C110.68668 86.75368 111.8357 87.90272 111.8357 89.32011zM60.01791 120.67581L60.01791 120.67581c.00001-1.4174 1.14903-2.56642 2.56643-2.56642v-.00005c-1.4174 0-2.56642-1.14902-2.56642-2.56642h-.00001c0 1.4174-1.14902 2.56642-2.56642 2.56642v.00005C58.86888 118.10939 60.01791 119.25842 60.01791 120.67581zM27.74196 104.94716L27.74196 104.94716c.00001-1.4174 1.14903-2.56643 2.56643-2.56643v-.00005c-1.4174 0-2.56642-1.14903-2.56642-2.56643h-.00001c0 1.4174-1.14903 2.56643-2.56642 2.56643v.00005C26.59293 102.38073 27.74196 103.52976 27.74196 104.94716zM16.60825 37.76089L16.60825 37.76089c.00001 1.51352 1.22695 2.74046 2.74047 2.74046v.00006c-1.51352 0-2.74047 1.22695-2.74047 2.74047h-.00001c0-1.51352-1.22695-2.74047-2.74047-2.74047v-.00006C15.3813 40.50135 16.60825 39.27441 16.60825 37.76089zM108.69669 28.74108L108.69669 28.74108c.00001 1.4174 1.14903 2.56642 2.56643 2.56642v.00005c-1.4174 0-2.56642 1.14902-2.56642 2.56642h-.00001c0-1.4174-1.14902-2.56642-2.56642-2.56642V31.3075C107.54767 31.3075 108.69669 30.15847 108.69669 28.74108zM46.52379 11.38426L46.52379 11.38426c.00001 1.4174 1.14903 2.56642 2.56643 2.56642v.00005c-1.4174 0-2.56642 1.14903-2.56642 2.56642h-.00001c0-1.4174-1.14902-2.56642-2.56642-2.56642v-.00005C45.37477 13.95068 46.52379 12.80165 46.52379 11.38426z"></path>
  <g>
    <path fill="#FFF" d="M87.34392,27.71315V93.4647c0,2.96732-2.40548,5.3728-5.3728,5.3728h-46.8716
			c-2.96732,0-5.3728-2.40548-5.3728-5.3728V27.71315c0-2.96731,2.40548-5.3728,5.3728-5.3728h46.8716
			C84.93844,22.34036,87.34392,24.74584,87.34392,27.71315z"></path>
    <path fill="#EDEDED" d="M39.71902 35.46214c0-.87988.71997-1.58984 1.59009-1.58984h34.44995c.88013 0 1.59009.70996 1.59009 1.58984 0 .87012-.70996 1.58008-1.59009 1.58008H41.30911C40.43899 37.04222 39.71902 36.33226 39.71902 35.46214zM77.34915 52.60228c0 .86987-.70996 1.58008-1.59009 1.58008H41.30911c-.87012 0-1.59009-.71021-1.59009-1.58008 0-.88013.71997-1.59009 1.59009-1.59009h34.44995C76.63919 51.01219 77.34915 51.72215 77.34915 52.60228zM77.34915 44.03221c0 .87012-.70996 1.58008-1.59009 1.58008H41.30911c-.87012 0-1.59009-.70996-1.59009-1.58008 0-.87988.71997-1.59009 1.59009-1.59009h34.44995C76.63919 42.44212 77.34915 43.15233 77.34915 44.03221z"></path>
    <path fill="#EDEDED" d="M87.34789,27.71556V93.4687c0,2.96436-2.41356,5.36479-5.37791,5.36479H35.10454
			c-2.22975,0-4.13159-1.33791-4.94497-3.26601c0.6427,0.26227,1.33791,0.4195,2.08565,0.4195h46.87856
			c2.96436,0,5.36446-2.40012,5.36446-5.37759V24.85592c0-0.74741-0.15723-1.45576-0.41949-2.09846
			C85.98371,23.58365,87.34789,25.49894,87.34789,27.71556z"></path>
    <path fill="#F34B50" d="M100.27328,86.75366c0,11.47017-9.2896,20.75977-20.75977,20.75977s-20.75978-9.2896-20.75978-20.75977
			c0-11.45391,9.28961-20.75978,20.75978-20.75978S100.27328,75.29975,100.27328,86.75366z"></path>
    <path fill="#E53946" d="M100.26782,86.7532c0,4.1841-1.2332,8.06655-3.34479,11.31944
			c-0.41982,0.65583-0.89216,1.2854-1.39043,1.88871c-0.15755,0.21007-0.32791,0.40668-0.51141,0.59018
			c-0.32791,0.38043-0.68208,0.76086-1.06252,1.11504c-0.15755,0.15755-0.31478,0.30165-0.47234,0.44608
			c-0.51141,0.47202-1.04939,0.9181-1.61331,1.33791c-0.14442,0.10471-0.28853,0.20975-0.44608,0.31479
			c-0.24914,0.17036-0.51141,0.35417-0.77367,0.51141c-0.24914,0.17068-0.51173,0.32791-0.78712,0.47234
			c-0.1441,0.09158-0.30165,0.18349-0.45921,0.26227c-0.28821,0.17068-0.59018,0.31478-0.89184,0.45889
			c-0.20975,0.10503-0.41982,0.19694-0.64269,0.30197c-0.11784,0.0522-0.24914,0.10472-0.38043,0.15723
			c-0.23601,0.10503-0.48515,0.19662-0.73428,0.28853c-0.06565,0.02626-0.13129,0.05251-0.21008,0.07877
			c-0.24914,0.0919-0.5114,0.17068-0.76054,0.26227c-0.11816,0.03939-0.24946,0.07877-0.39356,0.10503
			c-0.2232,0.07878-0.45921,0.1441-0.68209,0.19662c-0.4986,0.13129-1.00999,0.23633-1.5214,0.32791
			c-0.27572,0.05251-0.53799,0.0919-0.81339,0.13129c-0.11816,0.01313-0.24914,0.03939-0.38043,0.05251
			c-0.26226,0.02626-0.52453,0.05252-0.78712,0.06533c-0.17036,0.02626-0.34072,0.03971-0.52454,0.03971
			c-0.38043,0.02593-0.77367,0.03906-1.16723,0.03906c-0.40669,0-0.80025-0.01313-1.19382-0.03906
			c-0.27539-0.01345-0.55079-0.02626-0.82619-0.06565c-0.15755-0.01313-0.32791-0.02626-0.4986-0.05251
			c-0.24914-0.02626-0.48515-0.05252-0.73428-0.10504c-0.14442-0.01313-0.28853-0.03938-0.41982-0.06564
			c-0.26226-0.03907-0.52453-0.09158-0.77399-0.15723c-0.13097-0.01313-0.26227-0.05251-0.39356-0.07877
			c-0.30166-0.06565-0.57705-0.14442-0.86558-0.23601c-0.06564-0.01313-0.11816-0.02626-0.17036-0.03939
			c-0.34104-0.10503-0.66895-0.20975-0.99687-0.32791c-1.07565-0.3673-2.1119-0.83932-3.09564-1.3773
			c-0.26227-0.1441-0.49828-0.2754-0.74773-0.43295c-0.4195-0.23601-0.82619-0.5114-1.21975-0.7868
			c-0.28853-0.20975-0.56393-0.41982-0.83932-0.62957c-0.24914-0.19694-0.48547-0.39356-0.72147-0.59018
			c-0.0919-0.06565-0.17068-0.13129-0.24914-0.2232c-0.24946-0.20975-0.48547-0.43263-0.72147-0.65583
			c-0.4986-0.48515-0.98374-0.99687-1.42982-1.53454c-0.02626-0.03938-0.06565-0.06564-0.09191-0.10503
			c0,0,0.01345,0,0.02626,0.01313c3.59424,2.97749,8.21098,4.76147,13.23472,4.76147c7.47637,0,14.00839-3.93497,17.66796-9.83742
			c1.96748-3.17442,3.09565-6.91245,3.09565-10.91306c0-5.03687-1.79712-9.66705-4.78773-13.26098
			C97.34254,74.58099,100.26782,80.32589,100.26782,86.7532z"></path>
    <path fill="#FAD553" d="M88.55443,80.73859c0,5.00152-4.05741,9.04236-9.04235,9.04236s-9.02578-4.04084-9.02578-9.04236
				c0-4.98494,4.04084-9.02577,9.02578-9.02577S88.55443,75.75365,88.55443,80.73859z"></path>
    <path fill="#FAD553" d="M96.92303,98.07263c-3.69896,5.6927-10.11314,9.44386-17.40569,9.44386
				c-7.30602,0-13.72019-3.75115-17.4057-9.44386c3.02969-4.69551,7.90932-8.07968,13.60171-9.12907c0.01312,0,0.01312,0,0.01312,0
				c1.2332-0.23601,2.49234-0.35417,3.79087-0.35417c1.29852,0,2.55766,0.11816,3.79054,0.35417c0,0,0,0,0.01313,0
				C89.01371,89.99295,93.89304,93.37712,96.92303,98.07263z"></path>
    <g>
      <path fill="#FAB941" d="M96.92303,98.07263c-0.41982,0.65583-0.89216,1.2854-1.39043,1.88871
				c-0.15755,0.21007-0.32791,0.40668-0.51141,0.59018c-0.32791,0.38043-0.68208,0.76086-1.06252,1.11504
				c-0.15755,0.15755-0.31478,0.30165-0.47234,0.44608c-0.51141,0.47202-1.04939,0.9181-1.61331,1.33791
				c-0.14442,0.10471-0.28853,0.20975-0.44608,0.31479c-0.24914,0.17036-0.51141,0.35417-0.77367,0.51141
				c-0.24914,0.17068-0.51173,0.32791-0.78712,0.47234c-0.1441,0.09158-0.30165,0.18349-0.45921,0.26227
				c-0.28821,0.17068-0.59018,0.31478-0.89184,0.45889c-0.20975,0.10503-0.41982,0.19694-0.64269,0.30197
				c-0.11784,0.0522-0.24914,0.10472-0.38043,0.15723c-0.23601,0.10503-0.48515,0.19662-0.73428,0.28853
				c-0.06565,0.02626-0.13129,0.05251-0.21008,0.07877c-0.24914,0.0919-0.5114,0.17068-0.76054,0.26227
				c-0.11816,0.03939-0.24946,0.07877-0.39356,0.10503c-0.2232,0.07878-0.45921,0.1441-0.68209,0.19662
				c-0.4986,0.13129-1.00999,0.23633-1.5214,0.32791c-0.27572,0.05251-0.53799,0.0919-0.81339,0.13129
				c-0.11816,0.01313-0.24914,0.03939-0.38043,0.05251c-0.26226,0.02626-0.52453,0.05252-0.78712,0.06533
				c-0.17036,0.02626-0.34072,0.03971-0.52454,0.03971c-0.38043,0.02593-0.77367,0.03906-1.16723,0.03906
				c-0.40669,0-0.80025-0.01313-1.19382-0.03906c-0.27539-0.01345-0.55079-0.02626-0.82619-0.06565
				c-0.15755-0.01313-0.32791-0.02626-0.4986-0.05251c-0.24914-0.02626-0.48515-0.05252-0.73428-0.10504
				c-0.14442-0.01313-0.28853-0.03938-0.41982-0.06564c-0.26226-0.03907-0.52453-0.09158-0.77399-0.15723
				c-0.13097-0.01313-0.26227-0.05251-0.39356-0.07877c-0.30166-0.06565-0.57705-0.14442-0.86558-0.23601
				c-0.06564-0.01313-0.11816-0.02626-0.17036-0.03939c-0.34104-0.10503-0.66895-0.20975-0.99687-0.32791
				c-1.07565-0.3673-2.1119-0.82652-3.09564-1.3773c-0.24914-0.13129-0.49828-0.2754-0.74773-0.43295
				c-0.4195-0.23601-0.82619-0.5114-1.21975-0.7868c-0.28853-0.20975-0.56393-0.41982-0.83932-0.62957
				c-0.24914-0.19694-0.48547-0.39356-0.72147-0.59018c-0.0919-0.06565-0.17068-0.13129-0.24914-0.2232
				c-0.24946-0.20975-0.48547-0.43263-0.72147-0.65583c-0.4986-0.48515-0.98374-0.99687-1.42982-1.53454
				c-0.02626-0.03938-0.05252-0.06564-0.06565-0.0919c3.59424,2.97749,8.21098,4.76147,13.23472,4.76147
				c7.47637,0,14.00839-3.93497,17.66796-9.83742C95.37505,95.90853,96.20156,96.95792,96.92303,98.07263z"></path>
    </g>
  </g>
  <g>
    <path fill="#FFF" d="M100.27328,70.07127v2.14534c0,0.41705-0.33808,0.75514-0.75513,0.75514h-5.01418v5.01409
			c0,0.41705-0.33808,0.75514-0.75513,0.75514h-2.14526c-0.41705,0-0.75514-0.33809-0.75514-0.75514v-5.01409h-5.01418
			c-0.41705,0-0.75514-0.33809-0.75514-0.75514v-2.14534c0-0.41705,0.33809-0.75514,0.75514-0.75514h5.01418v-5.01409
			c0-0.41705,0.33809-0.75514,0.75514-0.75514h2.14526c0.41705,0,0.75513,0.33809,0.75513,0.75514v5.01409h5.01418
			C99.9352,69.31613,100.27328,69.65422,100.27328,70.07127z"></path>
    <path fill="#EDEDED" d="M85.22903 72.36229h5.61939v.60986h-5.00928c-.37012 0-.69019-.26978-.73999-.62988C85.13919 72.36229 85.17899 72.36229 85.22903 72.36229zM93.89896 63.69212c0-.03979 0-.08984-.02002-.12988.36011.05005.62012.37012.62012.73999v5.0139h-.6001V63.69212zM100.26907 70.07225v2.13989c0 .42017-.33008.76001-.75.76001h-5.02002v5.01001c0 .42017-.33008.76001-.75.76001h-2.1499c-.37012 0-.68018-.27002-.72998-.62988.03979.02002.07983.02002.12988.02002h2.14014c.41992 0 .75977-.34009.75977-.75v-5.02002h5.01001c.42017 0 .76001-.33008.76001-.75v-2.15015c0-.04004 0-.08984-.02002-.12988C100.00906 69.38231 100.26907 69.70238 100.26907 70.07225z"></path>
  </g>
</svg>
