<svg xmlns="http://www.w3.org/2000/svg" viewBox="0 0 48 48" id="award-certificate"><g data-name="23. mortarboard on Paper"><path fill="#dad7e5" d="M36,41h4a2,2,0,0,0,2-2V7L36,1H14a2,2,0,0,0-2,2V7Z"></path><path fill="#dad7e5" d="M36,13V45a2,2,0,0,1-2,2H8a2,2,0,0,1-2-2V9A2,2,0,0,1,8,7H30Z"></path><path fill="#edebf2" d="M42,7c0,33.18-.1,32,0,32a4,4,0,0,1-4-4V12.17L30.83,5H19a4,4,0,0,1-4-4H36Z"></path><path fill="#edebf2" d="M36,13V45H16a7,7,0,0,1-7-7V7H30Z"></path><polygon fill="#c6c3d8" points="36 13 30 13 30 7 36 13"></polygon><polygon fill="#c6c3d8" points="42 7 36 7 36 1 42 7"></polygon><path fill="#374f68" d="M26,21.33V27a1,1,0,0,1-1,1H17a1,1,0,0,1-1-1V21.33L21,23Z"></path><path fill="#425b72" d="M26,21.33V26H19a1,1,0,0,1-1-1V22l3,1Z"></path><path fill="#ffde76" d="M14,24a1,1,0,0,1-2,0c0-3.41,0-3.92.07-4C14.27,19.25,14,18.81,14,24Z"></path><path fill="#919191" d="M30 34H12a1 1 0 0 1 0-2H30A1 1 0 0 1 30 34zM22 38H12a1 1 0 0 1 0-2H22A1 1 0 0 1 22 38zM30 38H26a1 1 0 0 1 0-2h4A1 1 0 0 1 30 38zM30 42H12a1 1 0 0 1 0-2H30A1 1 0 0 1 30 42z"></path><path fill="#374f68" d="M30,20l-9,3-9-3c.15,0,1.81-.6,9-3Z"></path><path fill="#425b72" d="M27,19l-6,2-6-2,6-2Z"></path><path d="M43,6.94c0-.56.07-.29-6.28-6.65C36.29-.13,37.78,0,14,0a3,3,0,0,0-3,3V6H8A3,3,0,0,0,5,9V45a3,3,0,0,0,3,3H34a3,3,0,0,0,3-3V42h3a3,3,0,0,0,3-3C43,2.8,43,7.31,43,6.94ZM39.59,6H37V3.41ZM35,45a1,1,0,0,1-1,1H8a1,1,0,0,1-1-1V9A1,1,0,0,1,8,8H29v5a1,1,0,0,0,1,1h5ZM31,9.41,33.59,12H31ZM40,40H37c0-29.13.13-27.28-.29-27.71C30.22,5.81,30.59,6.05,30.07,6c-.3,0-2,0-17.07,0V3a1,1,0,0,1,1-1H35V7a1,1,0,0,0,1,1h5V39A1,1,0,0,1,40,40Z"></path><path d="M30.32 19.05c-9.78-3.26-9.19-3.15-9.64-3l-9 3a1 1 0 0 0 0 1.9c.44.15.32-.34.32 3.05a1 1 0 0 0 2 0V21.72l1 .33V27a2 2 0 0 0 2 2h8a2 2 0 0 0 2-2V22.05C30.31 21 31 21 31 20A1 1 0 0 0 30.32 19.05zm-9.32-1L26.84 20 21 22 15.16 20zm4 9H17V22.72C21 24.05 20.77 24 21 24s0 .07 4-1.28zM30 32H12a1 1 0 0 0 0 2H30A1 1 0 0 0 30 32zM12 38H22a1 1 0 0 0 0-2H12A1 1 0 0 0 12 38zM30 36H26a1 1 0 0 0 0 2h4A1 1 0 0 0 30 36zM30 40H12a1 1 0 0 0 0 2H30A1 1 0 0 0 30 40z"></path></g></svg>