<svg width="250" height="250" viewBox="0 0 250 250" fill="none" xmlns="http://www.w3.org/2000/svg">
<path d="M32.104 64.1411C32.104 61.9837 33.8529 60.2348 36.0103 60.2348H223.63C225.787 60.2348 227.536 61.9837 227.536 64.1411V185.156C227.536 187.313 225.787 189.062 223.63 189.062H36.0103C33.8529 189.062 32.104 187.313 32.104 185.156V64.1411Z" fill="black"/>
<path d="M22.4639 54.1646C22.4639 52.0072 24.2128 50.2583 26.3701 50.2583H213.99C216.147 50.2583 217.896 52.0072 217.896 54.1646V175.18C217.896 177.337 216.147 179.086 213.99 179.086H26.3701C24.2128 179.086 22.4639 177.337 22.4639 175.18V54.1646Z" fill="white"/>
<path fill-rule="evenodd" clip-rule="evenodd" d="M26.3701 46.3521H213.99C218.305 46.3521 221.802 49.8498 221.802 54.1646V175.18C221.802 179.494 218.305 182.992 213.99 182.992H26.3701C22.0554 182.992 18.5576 179.494 18.5576 175.18V54.1646C18.5576 49.8498 22.0554 46.3521 26.3701 46.3521ZM26.3701 50.2583C24.2128 50.2583 22.4639 52.0072 22.4639 54.1646V175.18C22.4639 177.337 24.2128 179.086 26.3701 179.086H213.99C216.147 179.086 217.896 177.337 217.896 175.18V54.1646C217.896 52.0072 216.147 50.2583 213.99 50.2583H26.3701Z" fill="black"/>
<path fill-rule="evenodd" clip-rule="evenodd" d="M52.499 96.7814C52.499 95.7027 53.3735 94.8283 54.4521 94.8283H185.909C186.988 94.8283 187.862 95.7027 187.862 96.7814C187.862 97.8601 186.988 98.7345 185.909 98.7345H54.4521C53.3735 98.7345 52.499 97.8601 52.499 96.7814Z" fill="black"/>
<path fill-rule="evenodd" clip-rule="evenodd" d="M92.812 74.797C92.812 73.7183 93.6865 72.8438 94.7652 72.8438H142.09C143.168 72.8438 144.043 73.7183 144.043 74.797C144.043 75.8756 143.168 76.7501 142.09 76.7501H94.7652C93.6865 76.7501 92.812 75.8756 92.812 74.797Z" fill="black"/>
<path fill-rule="evenodd" clip-rule="evenodd" d="M52.499 106.86C52.499 105.781 53.3735 104.907 54.4521 104.907H185.909C186.988 104.907 187.862 105.781 187.862 106.86C187.862 107.939 186.988 108.813 185.909 108.813H54.4521C53.3735 108.813 52.499 107.939 52.499 106.86Z" fill="black"/>
<path fill-rule="evenodd" clip-rule="evenodd" d="M52.499 118.728C52.499 117.65 53.3735 116.775 54.4521 116.775H185.909C186.988 116.775 187.862 117.65 187.862 118.728C187.862 119.807 186.988 120.681 185.909 120.681H54.4521C53.3735 120.681 52.499 119.807 52.499 118.728Z" fill="black"/>
<path fill-rule="evenodd" clip-rule="evenodd" d="M52.499 130.56C52.499 129.481 53.3735 128.606 54.4521 128.606H185.909C186.988 128.606 187.862 129.481 187.862 130.56C187.862 131.638 186.988 132.513 185.909 132.513H54.4521C53.3735 132.513 52.499 131.638 52.499 130.56Z" fill="black"/>
<path fill-rule="evenodd" clip-rule="evenodd" d="M52.499 141.514C52.499 140.435 53.3735 139.56 54.4521 139.56H115.799C116.877 139.56 117.752 140.435 117.752 141.514C117.752 142.592 116.877 143.467 115.799 143.467H54.4521C53.3735 143.467 52.499 142.592 52.499 141.514Z" fill="black"/>
<path d="M174.714 156.636H195.748V193.882L185.231 183.366L174.714 193.882V156.636Z" fill="white"/>
<path fill-rule="evenodd" clip-rule="evenodd" d="M170.808 156.636C170.808 154.479 172.557 152.73 174.714 152.73H195.748C197.905 152.73 199.654 154.479 199.654 156.636V193.882C199.654 195.462 198.702 196.886 197.242 197.491C195.783 198.096 194.103 197.761 192.985 196.644L185.231 188.89L177.477 196.644C176.359 197.761 174.679 198.096 173.22 197.491C171.76 196.886 170.808 195.462 170.808 193.882V156.636ZM185.231 183.366L195.748 193.882V156.636H174.714V193.882L185.231 183.366Z" fill="black"/>
<path d="M202.998 157.834C202.998 167.393 195.347 175.142 185.908 175.142C176.47 175.142 168.819 167.393 168.819 157.834C168.819 148.274 176.47 140.525 185.908 140.525C195.347 140.525 202.998 148.274 202.998 157.834Z" fill="white"/>
<path fill-rule="evenodd" clip-rule="evenodd" d="M206.904 157.834C206.904 169.503 197.551 179.048 185.908 179.048C174.266 179.048 164.913 169.503 164.913 157.834C164.913 146.164 174.266 136.619 185.908 136.619C197.551 136.619 206.904 146.164 206.904 157.834ZM185.908 175.142C195.347 175.142 202.998 167.393 202.998 157.834C202.998 148.274 195.347 140.525 185.908 140.525C176.47 140.525 168.819 148.274 168.819 157.834C168.819 167.393 176.47 175.142 185.908 175.142Z" fill="black"/>
<path fill-rule="evenodd" clip-rule="evenodd" d="M198.942 157.833C198.942 165.048 193.154 170.982 185.91 170.982C178.666 170.982 172.878 165.048 172.878 157.833C172.878 150.618 178.666 144.684 185.91 144.684C193.154 144.684 198.942 150.618 198.942 157.833ZM185.91 167.076C190.95 167.076 195.036 162.938 195.036 157.833C195.036 152.729 190.95 148.59 185.91 148.59C180.87 148.59 176.784 152.729 176.784 157.833C176.784 162.938 180.87 167.076 185.91 167.076Z" fill="black"/>
</svg>
