<svg width="100" height="111" viewBox="0 0 100 111" fill="none" xmlns="http://www.w3.org/2000/svg">
<path fill-rule="evenodd" clip-rule="evenodd" d="M63.8448 31.2214C92.775 -2.36128 121.008 47.3132 77.7868 55.359C121.008 63.7547 92.4264 113.079 63.8448 79.4963C78.484 121.475 21.6695 121.125 36.309 79.4963C7.37877 113.079 -20.8542 63.7547 22.3667 55.359C-21.2028 47.3132 7.37877 -2.01147 36.309 31.2214C21.321 -10.4071 78.484 -10.4071 63.8448 31.2214ZM49.9024 49.0623C53.3882 49.0623 56.525 51.8609 56.525 55.359C56.525 58.8571 53.3882 62.0057 49.9024 62.0057C46.417 62.0057 43.6283 58.8571 43.6283 55.359C43.6283 51.8609 46.417 49.0623 49.9024 49.0623Z" fill="#F4AE45"/>
</svg>
