<svg xmlns="http://www.w3.org/2000/svg" data-name="Layer 1" viewBox="0 0 512 512" id="form-download"><path fill="#e1e1e3" d="M372.5,504.5H61.5a30,30,0,0,1-30-30V37.5a30,30,0,0,1,30-30h246l95,95v372A30,30,0,0,1,372.5,504.5Z"></path><rect width="60" height="60" x="76.5" y="86.5" fill="#a8d9f5" rx="15"></rect><path fill="#83c9ee" d="M121.5,86.5h-20a15,15,0,0,1,15,15v30a15,15,0,0,1-15,15h20a15,15,0,0,0,15-15v-30A15,15,0,0,0,121.5,86.5Z"></path><rect width="60" height="60" x="76.5" y="191.5" fill="#a8d9f5" rx="15"></rect><rect width="60" height="60" x="76.5" y="296.5" fill="#a8d9f5" rx="15"></rect><path fill="#83c9ee" d="M121.5,191.5h-20a15,15,0,0,1,15,15v30a15,15,0,0,1-15,15h20a15,15,0,0,0,15-15v-30A15,15,0,0,0,121.5,191.5Z"></path><rect width="60" height="60" x="76.5" y="401.5" fill="#a8d9f5" rx="15"></rect><path fill="#83c9ee" d="M121.5 296.5h-20a15 15 0 0 1 15 15v30a15 15 0 0 1-15 15h20a15 15 0 0 0 15-15v-30A15 15 0 0 0 121.5 296.5zM121.5 401.5h-20a15 15 0 0 1 15 15v30a15 15 0 0 1-15 15h20a15 15 0 0 0 15-15v-30A15 15 0 0 0 121.5 401.5z"></path><path fill="#fff" d="M352.52 110h-186a7.5 7.5 0 0 1 0-15h186a7.5 7.5 0 0 1 0 15zM292.52 139h-126a7.5 7.5 0 0 1 0-15h126a7.5 7.5 0 0 1 0 15z"></path><path fill="#dadadc" d="M402.5,117.5h-65a30,30,0,0,1-30-30v-65l95,80Z"></path><path fill="#c8c5cc" d="M402.5,102.5h-65a30,30,0,0,1-30-30V7.5"></path><path fill="#fff" d="M352.52 214h-186a7.5 7.5 0 0 1 0-15h186a7.5 7.5 0 0 1 0 15zM232.52 244h-66a7.5 7.5 0 0 1 0-15h66a7.5 7.5 0 0 1 0 15zM322.52 319h-156a7.5 7.5 0 0 1 0-15h156a7.5 7.5 0 0 1 0 15zM277.52 349h-111a7.5 7.5 0 0 1 0-15h111a7.5 7.5 0 0 1 0 15zM258.19 424H166.5a7.5 7.5 0 0 1 0-15h91.69a7.5 7.5 0 1 1 0 15zM258.59 454H166.5a7.5 7.5 0 0 1 0-15h92.09a7.5 7.5 0 0 1 0 15z"></path><path fill="#138b4c" d="M391.31,504.5a89.18,89.18,0,1,1,63.07-26.12A88.61,88.61,0,0,1,391.31,504.5Z"></path><path fill="#107f47" d="M454.38,352.25a88.59,88.59,0,0,0-63.07-26.12,89.93,89.93,0,0,0-15,1.27,89.18,89.18,0,0,1,0,175.83,91,91,0,0,0,15,1.27,89.19,89.19,0,0,0,63.07-152.25Z"></path><path fill="#19ac66" d="M391.31,512a96.69,96.69,0,1,1,68.37-28.32A96.05,96.05,0,0,1,391.31,512Zm0-178.37a81.69,81.69,0,1,0,57.76,23.92A81.16,81.16,0,0,0,391.31,333.63Z"></path><path fill="#fff" d="M391.31,460.36a7.5,7.5,0,0,1-7.5-7.5V377.77a7.5,7.5,0,0,1,15,0v75.09A7.5,7.5,0,0,1,391.31,460.36Z"></path><path fill="#fff" d="M391.31,460.36a7.48,7.48,0,0,1-5.3-2.2l-24-24a7.5,7.5,0,1,1,10.6-10.61l18.74,18.74,18.74-18.74a7.5,7.5,0,0,1,10.61,10.61l-24,24A7.52,7.52,0,0,1,391.31,460.36Z"></path></svg>