<svg width="250" height="250" viewBox="0 0 250 250" fill="none" xmlns="http://www.w3.org/2000/svg">
<path fill-rule="evenodd" clip-rule="evenodd" d="M72.3454 130.185L118.06 147.35C121.62 148.687 125.546 148.679 129.101 147.329L173.754 130.368L173.753 162.984C173.754 163.015 173.754 163.045 173.754 163.076C173.754 173.125 151.053 181.271 123.05 181.271C95.0465 181.271 72.3454 173.125 72.3454 163.076C72.3454 163.066 72.3454 163.056 72.3453 163.045C72.3452 163.025 72.3451 163.004 72.3454 162.984V130.185Z" fill="black"/>
<path d="M214.97 154.698C216.495 151.897 218.221 148.259 219.681 145.025C220.818 142.506 224.054 141.951 225.446 144.338C227.884 148.517 229.492 153.504 230.292 156.826C230.546 157.882 230.322 159.026 229.511 159.748C226.07 162.807 220.759 161.987 216.633 160.423C214.42 159.584 213.838 156.776 214.97 154.698Z" fill="white"/>
<path fill-rule="evenodd" clip-rule="evenodd" d="M222.735 144.777C222.299 144.837 221.764 145.158 221.461 145.828C219.995 149.077 218.245 152.767 216.685 155.632C216.355 156.238 216.284 156.948 216.436 157.528C216.582 158.082 216.898 158.434 217.325 158.596C219.256 159.329 221.378 159.85 223.344 159.866C225.298 159.881 226.96 159.402 228.213 158.288C228.353 158.163 228.524 157.829 228.393 157.284C227.618 154.066 226.067 149.279 223.759 145.322C223.479 144.843 223.112 144.725 222.735 144.777ZM222.201 140.907C224.074 140.649 226.021 141.447 227.133 143.354L225.446 144.338M222.201 140.907C220.386 141.157 218.736 142.372 217.901 144.221ZM227.133 143.354C229.701 147.756 231.365 152.941 232.19 156.369C232.567 157.934 232.291 159.889 230.808 161.207C228.62 163.153 225.907 163.793 223.313 163.772C220.732 163.751 218.135 163.081 215.94 162.249C212.275 160.859 211.749 156.528 213.255 153.764C214.745 151.027 216.448 147.441 217.901 144.221" fill="black"/>
<path fill-rule="evenodd" clip-rule="evenodd" d="M219.242 139.861C220.077 139.178 221.307 139.301 221.99 140.136C222.66 140.955 223.004 142.158 223.22 143.159C223.458 144.263 223.622 145.554 223.735 146.852C223.961 149.455 224 152.271 223.967 154.079C223.948 155.158 223.057 156.016 221.979 155.996C220.9 155.977 220.042 155.087 220.062 154.008C220.093 152.296 220.055 149.622 219.843 147.191C219.737 145.973 219.591 144.862 219.401 143.982C219.307 143.542 219.208 143.195 219.113 142.937C219.023 142.694 218.962 142.606 218.963 142.605C218.963 142.605 218.964 142.607 218.967 142.61C218.284 141.775 218.407 140.544 219.242 139.861Z" fill="black"/>
<path fill-rule="evenodd" clip-rule="evenodd" d="M221.63 102.16C223.248 102.16 224.56 103.471 224.56 105.089V137.533C224.56 139.151 223.248 140.463 221.63 140.463C220.012 140.463 218.701 139.151 218.701 137.533V105.089C218.701 103.471 220.012 102.16 221.63 102.16Z" fill="black"/>
<path d="M229.693 138.685C229.693 143.138 226.083 146.748 221.63 146.748C217.177 146.748 213.567 143.138 213.567 138.685C213.567 134.232 217.177 130.622 221.63 130.622C226.083 130.622 229.693 134.232 229.693 138.685Z" fill="black"/>
<path d="M117.49 64.6478L22.8221 102.37C21.0725 103.067 21.0974 105.552 22.8606 106.214L117.799 141.861C121.556 143.272 125.699 143.264 129.45 141.839L223.246 106.211C224.999 105.545 225.024 103.074 223.285 102.373L129.758 64.6722C125.824 63.0864 121.43 63.0776 117.49 64.6478Z" fill="black"/>
<path fill-rule="evenodd" clip-rule="evenodd" d="M195.343 108.451C195.713 109.465 195.191 110.586 194.178 110.956L127.37 135.337C126.357 135.706 125.236 135.185 124.866 134.171C124.496 133.158 125.018 132.037 126.031 131.667L192.839 107.286C193.852 106.916 194.973 107.438 195.343 108.451Z" fill="white"/>
<path fill-rule="evenodd" clip-rule="evenodd" d="M38.2167 103.93C38.5882 102.917 39.7103 102.397 40.723 102.769L63.0506 110.959C64.0633 111.331 64.5831 112.453 64.2116 113.465C63.8401 114.478 62.718 114.998 61.7053 114.627L39.3777 106.436C38.365 106.065 37.8452 104.943 38.2167 103.93Z" fill="white"/>
</svg>
