<svg width="128" height="128" viewBox="0 0 128 128" fill="none" xmlns="http://www.w3.org/2000/svg">
<path d="M60.7522 19.79C60.7522 18.6855 61.6476 17.79 62.7522 17.79H64.4199C65.5245 17.79 66.4199 18.6855 66.4199 19.79V36.4695C66.4199 37.574 65.5245 38.4695 64.4199 38.4695H62.7522C61.6476 38.4695 60.7522 37.574 60.7522 36.4695V19.79Z" fill="white"/>
<path fill-rule="evenodd" clip-rule="evenodd" d="M62.7522 15.79H64.4199C66.629 15.79 68.4199 17.5809 68.4199 19.79V36.4695C68.4199 38.6786 66.629 40.4695 64.4199 40.4695H62.7522C60.5431 40.4695 58.7522 38.6786 58.7522 36.4695V19.79C58.7522 17.5809 60.5431 15.79 62.7522 15.79ZM62.7522 17.79C61.6476 17.79 60.7522 18.6855 60.7522 19.79V36.4695C60.7522 37.574 61.6476 38.4695 62.7522 38.4695H64.4199C65.5245 38.4695 66.4199 37.574 66.4199 36.4695V19.79C66.4199 18.6855 65.5245 17.79 64.4199 17.79H62.7522Z" fill="black"/>
<path d="M76.7362 66.3233L86.3465 106.355C86.8044 108.326 85.3079 110.21 83.2845 110.21H82.8535C81.5181 110.21 80.3284 109.366 79.8868 108.106L65.8061 68.0741C65.0899 66.03 66.6069 63.891 68.7728 63.891H73.6742C75.1363 63.891 76.4054 64.8991 76.7362 66.3233Z" fill="black"/>
<path d="M48.034 66.3233L38.4237 106.355C37.9659 108.326 39.4623 110.21 41.4858 110.21H41.9168C43.2522 110.21 44.4419 109.366 44.8835 108.106L58.9642 68.0741C59.6804 66.03 58.1634 63.891 55.9974 63.891H51.0961C49.6339 63.891 48.3648 64.8991 48.034 66.3233Z" fill="black"/>
<path d="M58.2675 65.214L59.6028 104.764C59.6758 106.388 61.0141 107.668 62.6402 107.668C64.2401 107.668 65.5662 106.428 65.6738 104.832L68.1301 65.3027C68.2844 63.0123 66.4682 61.0695 64.1726 61.0695H62.23C59.9695 61.0695 58.1661 62.9558 58.2675 65.214Z" fill="black"/>
<path d="M18.1294 28.348C18.1294 27.2434 19.0248 26.348 20.1294 26.348H105.051C106.155 26.348 107.051 27.2434 107.051 28.348V79.4931C107.051 80.5977 106.155 81.4931 105.051 81.4931H20.1294C19.0248 81.4931 18.1294 80.5977 18.1294 79.4931V28.348Z" fill="white"/>
<path fill-rule="evenodd" clip-rule="evenodd" d="M20.1294 24.348H105.051C107.26 24.348 109.051 26.1388 109.051 28.348V79.4931C109.051 81.7022 107.26 83.4931 105.051 83.4931H20.1294C17.9202 83.4931 16.1294 81.7022 16.1294 79.4931V28.348C16.1294 26.1388 17.9203 24.348 20.1294 24.348ZM20.1294 26.348C19.0248 26.348 18.1294 27.2434 18.1294 28.348V79.4931C18.1294 80.5977 19.0248 81.4931 20.1294 81.4931H105.051C106.155 81.4931 107.051 80.5977 107.051 79.4931V28.348C107.051 27.2434 106.155 26.348 105.051 26.348H20.1294Z" fill="black"/>
<path d="M28.5837 78.5911C28.5837 77.4865 29.4792 76.5911 30.5837 76.5911H38.9914C40.096 76.5911 40.9914 77.4865 40.9914 78.5911V79.4929C40.9914 80.5974 40.096 81.4929 38.9914 81.4929H30.5837C29.4792 81.4929 28.5837 80.5974 28.5837 79.4929V78.5911Z" fill="black"/>
<path d="M15.2188 24.4332C15.2188 23.3757 16.076 22.5184 17.1335 22.5184H110.153C111.21 22.5184 112.067 23.3757 112.067 24.4332C112.067 25.4907 111.21 26.348 110.153 26.348H17.1335C16.076 26.348 15.2188 25.4907 15.2188 24.4332Z" fill="white"/>
<path fill-rule="evenodd" clip-rule="evenodd" d="M17.1335 20.5184H110.153C112.315 20.5184 114.067 22.2711 114.067 24.4332C114.067 26.5953 112.315 28.348 110.153 28.348H17.1335C14.9715 28.348 13.2188 26.5953 13.2188 24.4332C13.2188 22.2711 14.9714 20.5184 17.1335 20.5184ZM17.1335 22.5184C16.076 22.5184 15.2188 23.3757 15.2188 24.4332C15.2188 25.4907 16.076 26.348 17.1335 26.348H110.153C111.21 26.348 112.067 25.4907 112.067 24.4332C112.067 23.3757 111.21 22.5184 110.153 22.5184H17.1335Z" fill="black"/>
<path d="M15.2188 83.4079C15.2188 82.3504 16.076 81.4931 17.1335 81.4931H110.153C111.21 81.4931 112.067 82.3504 112.067 83.4079C112.067 84.4654 111.21 85.3226 110.153 85.3226H17.1335C16.076 85.3226 15.2188 84.4654 15.2188 83.4079Z" fill="white"/>
<path fill-rule="evenodd" clip-rule="evenodd" d="M17.1335 79.4931H110.153C112.315 79.4931 114.067 81.2458 114.067 83.4079C114.067 85.5699 112.315 87.3226 110.153 87.3226H17.1335C14.9715 87.3226 13.2188 85.5699 13.2188 83.4079C13.2188 81.2458 14.9714 79.4931 17.1335 79.4931ZM17.1335 81.4931C16.076 81.4931 15.2188 82.3504 15.2188 83.4079C15.2188 84.4654 16.076 85.3226 17.1335 85.3226H110.153C111.21 85.3226 112.067 84.4654 112.067 83.4079C112.067 82.3504 111.21 81.4931 110.153 81.4931H17.1335Z" fill="black"/>
<path fill-rule="evenodd" clip-rule="evenodd" d="M60.7062 51.2794L74.5825 43.3566C76.9605 41.9988 79.989 42.8259 81.3467 45.204C82.7045 47.582 81.8774 50.6104 79.4994 51.9682L63.5232 61.09C63.4729 61.1235 63.4211 61.1555 63.3678 61.186L59.2731 63.5238C58.6542 63.8772 57.9513 63.9484 57.3132 63.7781C56.6616 63.6067 56.0768 63.1837 55.7164 62.5525L53.3786 58.458C53.3478 58.4042 53.3192 58.3497 53.2927 58.2946L47.6533 48.4175C46.2955 46.0395 47.1226 43.011 49.5006 41.6533C51.8786 40.2955 54.9071 41.1226 56.2649 43.5006L60.7062 51.2794ZM79.091 46.4919C79.7374 47.6241 79.3437 49.066 78.2114 49.7124L62.0822 58.9216C62.0807 58.9225 62.0801 58.9244 62.081 58.9259C62.0813 58.9265 62.0814 58.9271 62.0814 58.9277C62.0814 58.9287 62.0808 58.9297 62.0798 58.9302L57.9852 61.2681C57.9837 61.269 57.9818 61.2684 57.9809 61.2669C57.98 61.2654 57.9781 61.2649 57.9766 61.2658L57.9765 61.2658C57.975 61.2667 57.973 61.2661 57.9721 61.2646L55.6343 57.1701C55.6334 57.1685 55.634 57.1666 55.6355 57.1657C55.6371 57.1648 55.6376 57.1628 55.6367 57.1613L49.909 47.1296C49.2626 45.9973 49.6563 44.5555 50.7886 43.909C51.9208 43.2626 53.3627 43.6563 54.0091 44.7886L58.4505 52.5673C59.1618 53.8132 60.7484 54.2465 61.9942 53.5351L75.8704 45.6123C77.0027 44.9659 78.4445 45.3597 79.091 46.4919Z" fill="black"/>
</svg>
