<svg xmlns="http://www.w3.org/2000/svg" width="32" height="32" viewBox="0 0 32 32" id="smile"><path style="line-height:normal;font-variant-ligatures:normal;font-variant-position:normal;font-variant-caps:normal;font-variant-numeric:normal;font-variant-alternates:normal;font-variant-east-asian:normal;font-feature-settings:normal;font-variation-settings:normal;text-indent:0;text-align:start;text-decoration-line:none;text-decoration-style:solid;text-decoration-color:#000;text-transform:none;text-orientation:mixed;white-space:normal;shape-padding:0;shape-margin:0;inline-size:0;isolation:auto;mix-blend-mode:normal;solid-color:#000;solid-opacity:1" d="M 16,2 C 8.27986,2 2,8.2798587 2,16 2,23.720141 8.27986,30 16,30 23.72014,30 30,23.720141 30,16 30,8.2798587 23.72014,2 16,2 Z m 0,2 C 22.63926,4 28,9.3607389 28,16 28,22.639261 22.63926,28 16,28 9.36074,28 4,22.639261 4,16 4,9.3607389 9.36074,4 16,4 Z" color="#000" enable-background="accumulate" font-family="sans-serif" font-weight="400" overflow="visible"></path><path style="line-height:normal;font-variant-ligatures:normal;font-variant-position:normal;font-variant-caps:normal;font-variant-numeric:normal;font-variant-alternates:normal;font-variant-east-asian:normal;font-feature-settings:normal;font-variation-settings:normal;text-indent:0;text-align:start;text-decoration-line:none;text-decoration-style:solid;text-decoration-color:#000;text-transform:none;text-orientation:mixed;white-space:normal;shape-padding:0;shape-margin:0;inline-size:0;isolation:auto;mix-blend-mode:normal;solid-color:#000;solid-opacity:1" d="M8.21484 18.099611C7.70449 18.30874 7.45981 18.891593 7.66797 19.402346 9.04931 22.784666 12.34648 25 16 25c3.65327 0 6.95052-2.213726 8.33203-5.595703.20924-.511837-.0366-1.096327-.54883-1.304688-.51075-.208156-1.0936.03652-1.30273.546875C21.40399 21.281736 18.84664 23 16 23 13.15316 23 10.59588 21.282006 9.51953 18.646484 9.27842 18.016638 8.67658 17.915999 8.21484 18.099611zM12 9.0253906c-1.64501 0-3 1.3549894-3 3.0000004a1 1 0 001 1 1 1 0 001-1c0-.56413.43587-1 1-1 .56413 0 1 .43587 1 1a1 1 0 001 1 1 1 0 001-1C15 10.38038 13.64501 9.0253906 12 9.0253906zM20 9.0253906c-1.64501 0-3 1.3549894-3 3.0000004a1 1 0 001 1 1 1 0 001-1c0-.56413.43587-1 1-1 .56413 0 1 .43587 1 1a1 1 0 001 1 1 1 0 001-1C23 10.38038 21.64501 9.0253906 20 9.0253906z" color="#000" enable-background="accumulate" font-family="sans-serif" font-weight="400" overflow="visible"></path></svg>