<svg width="60" height="53" viewBox="0 0 60 53" fill="none" xmlns="http://www.w3.org/2000/svg">
<path d="M0.9375 52.7994V22.3104L27.7747 0L59.0625 22.9191V45.9903L51.3023 45.6289L50.1802 25.2205L29.2772 12.382L11.2653 26.3997L10.7518 52.7994H0.9375Z" fill="#3d992b"/>
<path d="M31.3694 36.556C31.3694 41.7485 27.1659 45.9519 21.9735 45.9519C16.781 45.9519 12.5776 41.7485 12.5776 36.556C12.5776 31.3636 16.781 27.1602 21.9735 27.1602C27.1659 27.1602 31.3694 31.3636 31.3694 36.556Z" fill="#3d992b"/>
<path fill-rule="evenodd" clip-rule="evenodd" d="M38.1786 31.0935C35.1598 31.0935 32.7155 33.5378 32.7155 36.5566C32.7155 39.5754 35.1598 42.0197 38.1786 42.0197C41.1975 42.0197 43.6417 39.5754 43.6417 36.5566C43.6417 33.5378 41.1975 31.0935 38.1786 31.0935ZM28.4258 36.5566C28.4258 31.1686 32.7906 26.8037 38.1786 26.8037C43.5666 26.8037 47.9315 31.1686 47.9315 36.5566C47.9315 41.9446 43.5666 46.3094 38.1786 46.3094C32.7906 46.3094 28.4258 41.9446 28.4258 36.5566Z" fill="#3d992b"/>
</svg>
