<svg width="100" height="63" viewBox="0 0 100 63" fill="none" xmlns="http://www.w3.org/2000/svg">
<path d="M82.9157 21.8414C83.1268 20.7218 83.2372 19.5667 83.2372 18.3854C83.2372 8.23146 75.0851 0 65.0287 0C58.8759 0 53.4356 3.08161 50.1398 7.79981C46.9755 5.11747 42.8943 3.50199 38.4395 3.50199C28.4798 3.50199 20.3879 11.5761 20.2335 21.5954H20.2312C9.05774 21.5954 0 30.7414 0 42.0238C0 53.3061 9.05774 62.4521 20.2312 62.4521H79.769C90.9421 62.4521 100 53.3061 100 42.0238C100 31.8222 92.5946 23.3678 82.9157 21.8414Z" fill="#eef5fe"/>
</svg>
