<svg xmlns="http://www.w3.org/2000/svg" viewBox="0 0 64 64" id="graduation-student"><path fill="#004fac" d="M56,61H8a7,7,0,0,1,7-7H49A7,7,0,0,1,56,61Z"></path><polygon fill="#ffdaaa" points="39 48 39 57 32 58 25 57 25 48 39 48"></polygon><path fill="#ffdaaa" d="M18 29v8H17a4 4 0 1 1 0-8zM47 29a4 4 0 0 1 0 8H46V29z"></path><path fill="#ffd399" d="M39,50.12v1a13.972,13.972,0,0,1-14,0v-1a13.972,13.972,0,0,0,14,0Z"></path><rect width="30" height="16" x="17" y="13" fill="#3e3d42"></rect><rect width="2" height="11" x="54" y="14" fill="#2d2d30"></rect><circle cx="55" cy="27" r="3" fill="#57565c"></circle><polygon points="47 17.38 47 18.38 32 24 17 18.38 17 17.38 32 23 47 17.38"></polygon><polygon fill="#57565c" points="32 23 8 14 32 3 56 14 32 23"></polygon><path fill="#ffe9cc" d="M18,29H46a0,0,0,0,1,0,0v9A14,14,0,0,1,32,52h0A14,14,0,0,1,18,38V29a0,0,0,0,1,0,0Z"></path><path fill="#2d2d30" d="M32,46c-2.577,0-4.367-.845-4.862-1.6a.941.941,0,0,0-.8-.4h0a1,1,0,0,0-.854,1.523C26.494,47,28.963,48,32,48s5.506-1,6.512-2.477A1,1,0,0,0,37.658,44h0a.941.941,0,0,0-.8.4C36.367,45.155,34.577,46,32,46Z"></path><rect width="2" height="4" x="26" y="35" fill="#2d2d30" rx="1"></rect><rect width="2" height="4" x="36" y="35" fill="#2d2d30" rx="1"></rect></svg>